<?xml version="1.0" standalone="no"?>
<!DOCTYPE svg PUBLIC "-//W3C//DTD SVG 20010904//EN"
 "http://www.w3.org/TR/2001/REC-SVG-20010904/DTD/svg10.dtd">
<svg version="1.0" xmlns="http://www.w3.org/2000/svg"
 width="250.000000pt" height="250.000000pt" viewBox="0 0 250.000000 250.000000"
 preserveAspectRatio="xMidYMid meet">
<metadata>
Created by potrace 1.10, written by Peter Selinger 2001-2011
</metadata>
<g transform="translate(0.000000,250.000000) scale(0.100000,-0.100000)"
fill="#517db9" stroke="none">
<path d="M1204 1780 c-50 -25 -88 -64 -108 -110 l-14 -36 66 -81 c37 -45 74
-82 83 -82 42 -2 48 -64 8 -76 -25 -8 -49 11 -49 39 0 13 -10 32 -23 44 -22
21 -24 21 -39 5 -9 -10 -18 -27 -19 -37 -9 -47 -70 -45 -77 3 -3 16 5 25 31
36 61 25 64 39 22 91 l-38 46 -72 -4 c-58 -3 -80 -9 -113 -31 -42 -27 -84 -82
-97 -124 -6 -22 -4 -23 54 -23 34 0 61 4 61 9 0 15 31 21 51 10 24 -12 22 -47
-3 -63 -13 -8 -23 -8 -38 2 -11 6 -47 12 -80 12 l-60 0 6 -42 c10 -62 37 -111
86 -152 l42 -36 53 52 c29 29 53 60 53 69 0 9 9 24 19 33 16 14 23 15 41 6 28
-15 24 -64 -6 -68 -11 -2 -43 -25 -69 -52 l-49 -50 162 0 162 0 0 59 c0 33 -4
63 -10 66 -5 3 -10 17 -10 30 0 32 44 46 68 22 13 -14 14 -20 3 -44 -7 -15
-14 -52 -14 -80 l-2 -53 143 0 c113 0 151 4 179 16 41 20 88 65 109 105 l15
29 -71 0 c-75 0 -84 -8 -58 -50 17 -26 0 -55 -32 -55 -32 0 -49 29 -32 55 23
37 15 50 -28 50 -22 0 -40 -4 -40 -9 0 -15 -31 -21 -51 -10 -29 15 -22 63 10
67 13 2 28 -1 34 -7 7 -7 62 -11 145 -11 l135 0 -6 60 c-11 126 -119 229 -214
206 l-26 -7 44 -45 c24 -24 51 -44 60 -44 39 0 51 -52 16 -74 -21 -14 -50 2
-55 30 -2 10 -24 40 -49 66 l-46 47 -57 -29 c-35 -17 -60 -37 -63 -49 -7 -27
-52 -28 -66 -3 -13 24 13 64 37 61 10 -2 28 1 41 5 23 8 22 9 -24 56 -26 27
-58 51 -71 54 -17 5 -24 14 -24 30 0 30 23 49 50 41 19 -6 21 -10 24 -42 1 -7
23 -35 50 -62 l49 -50 51 26 c28 14 53 27 55 29 12 11 -56 88 -102 114 -65 37
-149 41 -213 10z m169 -19 c34 -13 97 -70 97 -87 0 -19 -41 -34 -62 -23 -36
19 -94 119 -69 119 5 0 21 -4 34 -9z m-160 -50 c4 -20 21 -39 52 -61 25 -17
45 -33 45 -36 0 -3 -13 -19 -30 -34 -16 -15 -30 -37 -30 -49 0 -44 -34 -21
-104 71 -32 43 -29 63 15 108 38 37 45 37 52 1z m-163 -141 c27 -27 25 -44 -5
-64 -14 -10 -31 -28 -37 -42 -10 -20 -8 -29 10 -54 l22 -29 -28 -15 c-15 -8
-34 -27 -42 -43 -20 -40 -71 -93 -90 -93 -22 0 -56 37 -75 84 -27 64 -6 79 76
55 32 -10 42 -9 62 4 29 18 37 44 26 75 -13 35 -51 47 -100 33 -61 -18 -72 -1
-28 45 43 46 81 63 142 64 34 0 52 -5 67 -20z m447 -52 c17 -18 36 -43 42 -56
17 -32 56 -55 81 -47 11 3 28 22 39 42 18 36 18 36 33 14 8 -11 15 -36 14 -54
l-1 -32 -115 1 c-63 0 -127 4 -142 8 -36 11 -83 -33 -72 -67 13 -45 36 -59 81
-53 44 6 53 -2 53 -50 0 -24 -2 -24 -89 -24 -107 0 -120 9 -102 69 16 55 14
75 -12 99 -18 17 -22 30 -19 56 3 29 9 36 33 41 16 4 32 11 35 16 10 16 86 69
99 69 6 0 25 -15 42 -32z m-310 -135 c13 -13 22 -36 22 -55 1 -18 2 -53 3 -78
l3 -45 -97 -3 c-55 -1 -98 1 -98 6 0 5 15 21 34 36 46 35 52 58 26 101 -16 26
-18 35 -8 35 8 0 27 14 44 31 26 28 30 29 39 13 6 -10 20 -28 32 -41z"/>
<path d="M434 1063 c-9 -21 -24 -58 -35 -82 -23 -53 -23 -51 1 -51 11 0 23 7
26 15 4 9 19 15 40 15 24 0 34 -5 34 -15 0 -12 15 -15 75 -15 60 0 75 3 75 15
0 8 -9 15 -20 15 -25 0 -25 5 1 41 l20 29 -50 0 c-28 0 -51 -4 -51 -10 0 -5 9
-10 20 -10 26 0 25 -8 -4 -44 l-23 -30 -31 80 c-35 92 -55 104 -78 47z m43
-69 c-3 -3 -12 -4 -20 -2 -11 2 -12 9 -5 28 l10 25 11 -23 c5 -12 8 -25 4 -28z"/>
<path d="M1109 1085 c-53 -29 -57 -104 -7 -139 23 -17 93 -22 102 -8 10 16
-11 34 -32 28 -47 -15 -83 34 -55 74 12 18 22 21 48 17 26 -4 34 -2 38 13 8
30 -49 39 -94 15z"/>
<path d="M1224 1015 c0 -75 3 -85 18 -85 16 0 18 10 18 85 0 75 -2 85 -18 85
-16 0 -18 -9 -18 -85z"/>
<path d="M1624 1060 c6 -39 5 -40 -14 -30 -42 23 -85 -33 -60 -79 9 -17 20
-21 60 -21 l50 0 0 85 c0 80 -1 85 -21 85 -20 0 -21 -4 -15 -40z m-4 -65 c15
-18 5 -35 -21 -35 -12 0 -19 7 -19 18 0 33 20 42 40 17z"/>
<path d="M1683 1084 c-8 -21 13 -42 28 -27 13 13 5 43 -11 43 -6 0 -13 -7 -17
-16z"/>
<path d="M1800 1016 l0 -86 45 0 c33 0 45 4 45 15 0 10 -10 15 -31 15 l-31 0
4 67 c3 58 1 68 -14 71 -16 3 -18 -6 -18 -82z"/>
<path d="M2070 1060 c0 -38 -2 -40 -20 -30 -44 24 -85 -31 -56 -75 13 -20 24
-24 61 -23 l45 1 0 83 c0 68 -3 84 -15 84 -11 0 -15 -11 -15 -40z m-10 -65
c15 -18 5 -35 -21 -35 -12 0 -19 7 -19 18 0 33 20 42 40 17z"/>
<path d="M1917 1054 c3 -9 0 -20 -8 -25 -11 -6 -11 -11 -1 -21 6 -6 12 -25 12
-40 0 -30 16 -42 46 -36 16 3 17 4 1 20 -20 20 -22 54 -4 62 10 5 10 7 0 12
-7 3 -13 14 -13 25 0 12 -7 19 -20 19 -14 0 -18 -5 -13 -16z"/>
<path d="M851 1031 c-7 -5 -22 -6 -32 -4 -17 5 -19 -1 -19 -46 0 -39 4 -51 15
-51 10 0 15 11 15 35 0 32 8 41 34 36 12 -3 26 21 20 31 -7 10 -15 10 -33 -1z"/>
<path d="M930 1033 c-21 -7 -40 -33 -40 -54 0 -43 73 -67 101 -33 11 14 9 15
-21 12 -20 -2 -35 2 -37 10 -3 8 7 12 31 12 42 0 48 20 14 44 -24 17 -25 17
-48 9z"/>
<path d="M1302 1024 c-24 -17 -30 -62 -10 -82 7 -7 27 -12 45 -12 63 0 79 70
23 100 -25 13 -32 13 -58 -6z m58 -45 c0 -12 -7 -19 -20 -19 -24 0 -38 29 -20
40 19 12 40 1 40 -21z"/>
<path d="M670 983 c5 -47 6 -48 44 -51 47 -4 53 1 61 56 5 38 4 42 -15 42 -16
0 -20 -6 -20 -35 0 -28 -4 -35 -20 -35 -16 0 -20 7 -20 35 0 27 -4 35 -18 35
-15 0 -17 -6 -12 -47z"/>
<path d="M1410 997 c0 -51 19 -69 65 -65 l40 3 3 48 c2 37 0 47 -12 47 -11 0
-16 -10 -16 -34 0 -20 -6 -36 -14 -39 -20 -8 -26 2 -26 40 0 26 -4 33 -20 33
-16 0 -20 -7 -20 -33z"/>
<path d="M1680 980 c0 -43 3 -50 20 -50 17 0 20 7 20 50 0 43 -3 50 -20 50
-17 0 -20 -7 -20 -50z"/>
</g>
</svg>
